M48
;Layer_Color=9474304
;FILE_FORMAT=2:4
INCH,TZ
;TYPE=PLATED
T1F00S00C0.0157
T2F00S00C0.0197
T3F00S00C0.0315
T4F00S00C0.0320
T5F00S00C0.0354
T6F00S00C0.0394
T7F00S00C0.0472
T9F00S00C0.1181
T10F00S00C0.1378
%
T01
X27000Y14850
X30550
X32200
X32850Y16650
X33790Y16600
X32400Y19050
X31890Y19500
X36723Y20250
X38450Y19550
X40750Y19250
Y20000
X43050Y19600
X39250Y23250
X38500Y23700
X37420Y25050
Y25900
X39050Y28488
X34650Y29050
X32950Y29350
X32300Y27935
X33600Y27305
X33400Y25150
X32760Y24744
X30980Y20020
X29450Y21050
X27445Y21000
X27850Y20050
X27800Y18150
X25550
X23360Y18650
X23050Y20350
X21200Y19750
Y18750
X19226Y18800
X19200Y19800
X17200Y30192
X21650Y30250
X29950Y28465
X15550
X33085Y31350
X33350Y34200
X38050Y34250
X40800Y36200
X43571Y36350
Y31450
X40850Y31950
X33350Y39500
T02
X10870Y13320
X11550Y13050
X12220Y13320
X12500Y14000
X12230Y14690
X11550Y14950
X10860Y14680
X10600Y14000
X45700
X45960Y14680
X46650Y14950
Y13050
X45970Y13320
X47320
X47600Y14000
X47330Y14690
X47320Y47870
X47600Y48550
X47330Y49240
X46650Y49500
X45960Y49230
X45700Y48550
X45970Y47870
X46650Y47600
X12220Y47870
X11550Y47600
X10870Y47870
X10600Y48550
X10860Y49230
X11550Y49500
X12230Y49240
X12500Y48550
T03
X11900Y28465
Y29465
Y30465
T04
X44650Y25940
Y26940
Y27940
Y28940
Y29940
Y30940
X26500Y27000
Y26000
Y25000
Y24000
Y23000
Y22000
Y21000
Y20000
Y19000
X22200Y23100
X21200
X20200
X19200
X18200
Y29100
X19200
X20200
X21200
X22200
X44650Y31940
Y32940
Y33940
T05
X31900Y18200
X32900
X33900
X34900
X35900
X39950Y25950
Y26950
Y27950
Y28950
Y29950
Y30950
X28200Y31000
Y30000
Y29000
Y28000
Y27000
Y26000
Y25000
Y24000
X28900Y18200
X29900
X30900
X30550Y15850
X29550
X28550
X27550
X26550
X25550
X29850Y35240
X30850
X30300Y37900
X31300
X32300
X33300
X34300
X35300
X36300
X37300
X38300
X39300
X40300
X41300
X42300
X43300
X44300
X45300
X39950Y32950
Y31950
X36850Y35240
X35850
X34850
X33850
X32850
X31850
T06
X11950Y24775
Y25775
X41800Y35240
X42800
T07
X39800Y16800
X40800
Y17800
X41800
X42800
X43800
Y16800
X42800
X41800
X39800Y17800
T09
X17810Y37800
X47600
Y50200
X17850
T10
X11550Y14000
X46650
Y48550
X11550
M30
