G04 Layer_Color=16711935*
%FSLAX24Y24*%
%MOIN*%
G70*
G01*
G75*
%ADD26C,0.1181*%
%ADD54R,0.1080X0.1680*%
%ADD55R,0.1680X0.1080*%
%ADD56C,0.1261*%
%ADD57R,0.0592X0.0710*%
%ADD58O,0.0680X0.1080*%
%ADD59C,0.0671*%
%ADD60R,0.0671X0.0671*%
%ADD61R,0.0631X0.0867*%
%ADD62O,0.0631X0.0867*%
%ADD63R,0.0671X0.0671*%
%ADD64O,0.1080X0.0680*%
%ADD65R,0.1080X0.0680*%
%ADD66C,0.0474*%
%ADD67C,0.2442*%
%ADD68O,0.1064X0.0749*%
%ADD69C,0.0395*%
D26*
X17810Y37800D02*
D03*
X47600D02*
D03*
D54*
X15850Y45050D02*
D03*
X13350D02*
D03*
D55*
X14850Y43050D02*
D03*
D56*
X17850Y50200D02*
D03*
X47600D02*
D03*
D57*
X30300Y37900D02*
D03*
X31300D02*
D03*
X32300D02*
D03*
X33300D02*
D03*
X34300D02*
D03*
X35300D02*
D03*
X36300D02*
D03*
X37300D02*
D03*
X38300D02*
D03*
X39300D02*
D03*
X40300D02*
D03*
X41300D02*
D03*
X42300D02*
D03*
X43300D02*
D03*
X44300D02*
D03*
X45300D02*
D03*
D58*
X20200Y23100D02*
D03*
X21200D02*
D03*
X19200D02*
D03*
X18200D02*
D03*
X21200Y29100D02*
D03*
X18200D02*
D03*
X19200D02*
D03*
X20200D02*
D03*
X22200D02*
D03*
Y23100D02*
D03*
D59*
X30550Y15850D02*
D03*
X29550D02*
D03*
X28550D02*
D03*
X27550D02*
D03*
X26550D02*
D03*
X39950Y26950D02*
D03*
Y27950D02*
D03*
Y28950D02*
D03*
Y29950D02*
D03*
Y30950D02*
D03*
Y31950D02*
D03*
Y32950D02*
D03*
X11950Y25775D02*
D03*
X35850Y35240D02*
D03*
X34850D02*
D03*
X33850D02*
D03*
X32850D02*
D03*
X31850D02*
D03*
X30850D02*
D03*
X29850D02*
D03*
X28200Y25000D02*
D03*
Y26000D02*
D03*
Y27000D02*
D03*
Y28000D02*
D03*
Y29000D02*
D03*
Y30000D02*
D03*
Y31000D02*
D03*
X29900Y18200D02*
D03*
X30900D02*
D03*
X31900D02*
D03*
X32900D02*
D03*
X33900D02*
D03*
X34900D02*
D03*
X35900D02*
D03*
X42800Y35240D02*
D03*
D60*
X25550Y15850D02*
D03*
X36850Y35240D02*
D03*
X28900Y18200D02*
D03*
X41800Y35240D02*
D03*
D61*
X43800Y17800D02*
D03*
D62*
Y16800D02*
D03*
X42800Y17800D02*
D03*
Y16800D02*
D03*
X40800D02*
D03*
Y17800D02*
D03*
X41800Y16800D02*
D03*
Y17800D02*
D03*
X39800D02*
D03*
Y16800D02*
D03*
D63*
X39950Y25950D02*
D03*
X11950Y24775D02*
D03*
X28200Y24000D02*
D03*
D64*
X44650Y25940D02*
D03*
Y27940D02*
D03*
Y29940D02*
D03*
Y32940D02*
D03*
Y31940D02*
D03*
Y30940D02*
D03*
Y28940D02*
D03*
Y26940D02*
D03*
X26500Y27000D02*
D03*
Y25000D02*
D03*
Y23000D02*
D03*
Y20000D02*
D03*
Y21000D02*
D03*
Y22000D02*
D03*
Y24000D02*
D03*
Y26000D02*
D03*
D65*
X44650Y33940D02*
D03*
X26500Y19000D02*
D03*
D66*
X47330Y14690D02*
D03*
X45960Y14680D02*
D03*
X47320Y13320D02*
D03*
X46650Y13050D02*
D03*
Y14950D02*
D03*
X47600Y14000D02*
D03*
X45700D02*
D03*
X45970Y13320D02*
D03*
X47330Y49240D02*
D03*
X45960Y49230D02*
D03*
X47320Y47870D02*
D03*
X46650Y47600D02*
D03*
Y49500D02*
D03*
X47600Y48550D02*
D03*
X45700D02*
D03*
X45970Y47870D02*
D03*
X12230Y49240D02*
D03*
X10860Y49230D02*
D03*
X12220Y47870D02*
D03*
X11550Y47600D02*
D03*
Y49500D02*
D03*
X12500Y48550D02*
D03*
X10600D02*
D03*
X10870Y47870D02*
D03*
X12230Y14690D02*
D03*
X10860Y14680D02*
D03*
X12220Y13320D02*
D03*
X11550Y13050D02*
D03*
Y14950D02*
D03*
X12500Y14000D02*
D03*
X10600D02*
D03*
X10870Y13320D02*
D03*
D67*
X46650Y14000D02*
D03*
Y48550D02*
D03*
X11550D02*
D03*
Y14000D02*
D03*
D68*
X11900Y30465D02*
D03*
Y29465D02*
D03*
Y28465D02*
D03*
D69*
X40750Y20000D02*
D03*
X38050Y34250D02*
D03*
X39050Y28488D02*
D03*
X21200Y19750D02*
D03*
X23050Y20350D02*
D03*
X21200Y18750D02*
D03*
X43050Y19600D02*
D03*
X38450Y19550D02*
D03*
X31890Y19500D02*
D03*
X32400Y19050D02*
D03*
X33400Y25150D02*
D03*
X37420Y25050D02*
D03*
X33790Y16600D02*
D03*
X32200Y14850D02*
D03*
X17200Y30192D02*
D03*
X21650Y30250D02*
D03*
X15550Y28465D02*
D03*
X38500Y23700D02*
D03*
X37420Y25900D02*
D03*
X33085Y31350D02*
D03*
X39250Y23250D02*
D03*
X32760Y24744D02*
D03*
X36723Y20250D02*
D03*
X40750Y19250D02*
D03*
X43571Y36350D02*
D03*
X40800Y36200D02*
D03*
X43571Y31450D02*
D03*
X40850Y31950D02*
D03*
X32850Y16650D02*
D03*
X33350Y39500D02*
D03*
X32950Y29350D02*
D03*
X34650Y29050D02*
D03*
X33600Y27305D02*
D03*
X32300Y27935D02*
D03*
X33350Y34200D02*
D03*
X29950Y28465D02*
D03*
X27800Y18150D02*
D03*
X25550D02*
D03*
X29450Y21050D02*
D03*
X27850Y20050D02*
D03*
X30980Y20020D02*
D03*
X27445Y21000D02*
D03*
X23360Y18650D02*
D03*
X19226Y18800D02*
D03*
X19200Y19800D02*
D03*
X30550Y14850D02*
D03*
X27000D02*
D03*
M02*
