G04 Layer_Color=65535*
%FSLAX24Y24*%
%MOIN*%
G70*
G01*
G75*
%ADD20C,0.0150*%
%ADD23C,0.0100*%
%ADD40C,0.0098*%
%ADD41C,0.0236*%
%ADD42C,0.0120*%
%ADD43R,0.0500X0.1000*%
G36*
X20870Y27250D02*
Y27240D01*
X20500D01*
Y26360D01*
X19910D01*
Y27240D01*
X19540D01*
X20200Y27900D01*
X20220D01*
X20870Y27250D01*
D02*
G37*
D20*
X38840Y21093D02*
X39234D01*
X38840D02*
Y22707D01*
X39628D01*
Y21093D02*
Y22707D01*
X39234Y21093D02*
X39628D01*
X39474Y21740D02*
Y22055D01*
X38994Y21743D02*
Y22057D01*
X31589Y26439D02*
X35211D01*
X31589Y30061D02*
X35211D01*
X31589Y26439D02*
Y30061D01*
X35211Y26439D02*
Y30061D01*
X16990Y45640D02*
X17930D01*
Y42970D02*
Y45640D01*
X16740Y42970D02*
X17930D01*
X16740D02*
Y45640D01*
X16990D01*
X17340Y44000D02*
X17790Y44600D01*
X16940Y44580D02*
X17340Y44000D01*
X16930Y44600D02*
X16940Y44580D01*
X16930Y44600D02*
X17790D01*
X16910Y44000D02*
X17790D01*
X17330Y44120D02*
X17640Y44550D01*
X17060Y44530D02*
X17330Y44120D01*
X17060Y44530D02*
X17560Y44520D01*
X17310Y44230D02*
X17560Y44520D01*
X17210Y44480D02*
X17310Y44230D01*
X17120Y44470D02*
X17470Y44440D01*
X17120Y44470D02*
X17450Y44320D01*
X40020Y20840D02*
X40470D01*
X41030D02*
X41480D01*
Y23060D01*
X40020Y20840D02*
Y23060D01*
X40500Y21450D02*
Y22450D01*
X41000D01*
Y21450D02*
Y22450D01*
X40500Y21450D02*
X41000D01*
X40020Y23060D02*
X40470D01*
X41030D02*
X41480D01*
X32550Y46357D02*
X32944D01*
Y44743D02*
Y46357D01*
X32156Y44743D02*
X32944D01*
X32156D02*
Y46357D01*
X32550D01*
X32310Y45395D02*
Y45710D01*
X32790Y45393D02*
Y45707D01*
X31328Y44328D02*
Y47628D01*
X29782D02*
X31328D01*
X27272D02*
X28818D01*
X27272Y44308D02*
Y47628D01*
X29782Y43572D02*
X30572D01*
X31328Y44328D01*
X27272Y44308D02*
X28008Y43572D01*
X28818D01*
X12885Y33970D02*
X13535D01*
X12885Y33757D02*
X13215D01*
X12885Y32320D02*
Y33760D01*
Y32320D02*
X13545D01*
Y33760D01*
X13215Y33757D02*
X13545D01*
X24040Y44700D02*
Y44822D01*
X24434Y44700D02*
Y44822D01*
X25851Y44700D02*
Y44822D01*
X26245Y44700D02*
Y44822D01*
X23764Y47185D02*
X23961D01*
X26323D02*
X26520D01*
X23764Y44822D02*
X26520D01*
X25851D02*
X26245D01*
X24946Y44507D02*
Y44822D01*
X25339D01*
Y44507D02*
Y44822D01*
X24946Y44507D02*
X25339D01*
X24040Y44822D02*
X24434D01*
X26520D02*
Y47185D01*
X23764Y44822D02*
Y47185D01*
Y44850D02*
X26520D01*
X10350Y43250D02*
Y46550D01*
X15800Y43250D02*
Y46550D01*
X10350D02*
X15800D01*
X10350Y43250D02*
X15800D01*
X11050D02*
Y46550D01*
X29800Y38400D02*
X45800D01*
Y37400D02*
Y38400D01*
X45050Y37400D02*
X45800D01*
X29800D02*
X45050D01*
X29800D02*
Y38400D01*
X17000Y36900D02*
X48500D01*
Y51100D01*
X17000D02*
X48500D01*
X16950Y36900D02*
Y51100D01*
X46481Y39289D02*
Y49131D01*
X18529D02*
X46481D01*
X18529Y39289D02*
Y49131D01*
Y39289D02*
X46481D01*
X19200Y26300D02*
Y27900D01*
Y26300D02*
Y27900D01*
X21200Y26300D02*
Y27900D01*
Y26300D02*
Y27900D01*
X19400Y28100D02*
X21000D01*
X19400Y26100D02*
X21000D01*
X19400D02*
X21000D01*
X19400Y24100D02*
X21000D01*
X19200Y24300D02*
Y25900D01*
Y24300D02*
Y25900D01*
X21200Y24300D02*
Y25900D01*
Y24300D02*
Y25900D01*
X19200Y26300D02*
Y27900D01*
Y26300D02*
Y27900D01*
X21200Y26300D02*
Y27900D01*
Y26300D02*
Y27900D01*
X19400Y28100D02*
X21000D01*
X19400Y26100D02*
X21000D01*
X19400D02*
X21000D01*
X19400Y24100D02*
X21000D01*
X19200Y24300D02*
Y25900D01*
Y24300D02*
Y25900D01*
X21200Y24300D02*
Y25900D01*
Y24300D02*
Y25900D01*
X19200Y26300D02*
Y27900D01*
Y26300D02*
Y27900D01*
X21200Y26300D02*
Y27900D01*
Y26300D02*
Y27900D01*
X19400Y28100D02*
X21000D01*
X19400Y26100D02*
X21000D01*
X19400D02*
X21000D01*
X19400Y24100D02*
X21000D01*
X19200Y24300D02*
Y25900D01*
Y24300D02*
Y25900D01*
X21200Y24300D02*
Y25900D01*
Y24300D02*
Y25900D01*
X19200Y26300D02*
Y27900D01*
Y26300D02*
Y27900D01*
X21200Y26300D02*
Y27900D01*
Y26300D02*
Y27900D01*
X19400Y28100D02*
X21000D01*
X19400Y26100D02*
X21000D01*
X19400D02*
X21000D01*
X19400Y24100D02*
X21000D01*
X19200Y24300D02*
Y25900D01*
Y24300D02*
Y25900D01*
X21200Y24300D02*
Y25900D01*
Y24300D02*
Y25900D01*
X17700Y29850D02*
X22700D01*
Y22320D02*
Y29850D01*
X17700Y22320D02*
X22700D01*
X17700D02*
Y29850D01*
X25050Y15350D02*
X31050D01*
X25050Y16350D02*
X31050D01*
X25050Y15350D02*
Y16350D01*
X31050Y15350D02*
Y16350D01*
X38060Y15725D02*
X45540D01*
Y18875D01*
X38060Y15725D02*
Y18875D01*
X45540D01*
X41070Y16200D02*
X41800D01*
X41070Y15725D02*
Y16200D01*
X42530Y15725D02*
Y16200D01*
X41800D02*
X42530D01*
X39450Y33450D02*
X40450D01*
Y25450D02*
Y33450D01*
X39450Y25450D02*
X40450D01*
X39450D02*
Y33450D01*
X11450Y24275D02*
Y26275D01*
Y24275D02*
X12450D01*
Y26275D01*
X11450D02*
X12450D01*
X21806Y20143D02*
X22200D01*
X21806D02*
Y21757D01*
X22594D01*
Y20143D02*
Y21757D01*
X22200Y20143D02*
X22594D01*
X22440Y20790D02*
Y21105D01*
X21960Y20793D02*
Y21107D01*
X44100Y33540D02*
X45300D01*
X44100Y34440D02*
X45300D01*
X44100Y25390D02*
Y34440D01*
Y25390D02*
X45300D01*
Y34440D01*
X11150Y27565D02*
Y31315D01*
X13050D01*
Y27565D02*
Y31315D01*
X11150Y27565D02*
X13050D01*
X30860Y22230D02*
X30880Y22210D01*
X37050D01*
X30860Y24230D02*
X37050D01*
X30860Y22230D02*
Y24230D01*
X37050Y22210D02*
Y24230D01*
X34210Y23190D02*
X34410D01*
X34210Y22890D02*
Y23490D01*
X34060Y22690D02*
Y23690D01*
X33860D02*
X34060D01*
X33860Y22690D02*
Y23690D01*
Y22690D02*
X34060D01*
X33710Y22890D02*
Y23490D01*
X33510Y23190D02*
X33710D01*
X25850Y19400D02*
X27050D01*
X25850Y18500D02*
X27050D01*
Y27550D01*
X25850D02*
X27050D01*
X25850Y18500D02*
Y27550D01*
X33393Y15907D02*
Y16301D01*
X35007D01*
Y15513D02*
Y16301D01*
X33393Y15513D02*
X35007D01*
X33393D02*
Y15907D01*
X34040Y15667D02*
X34355D01*
X34043Y16147D02*
X34357D01*
X35600Y46357D02*
X35994D01*
Y44743D02*
Y46357D01*
X35206Y44743D02*
X35994D01*
X35206D02*
Y46357D01*
X35600D01*
X35360Y45395D02*
Y45710D01*
X35840Y45393D02*
Y45707D01*
X31493Y15907D02*
Y16301D01*
X33107D01*
Y15513D02*
Y16301D01*
X31493Y15513D02*
X33107D01*
X31493D02*
Y15907D01*
X32140Y15667D02*
X32455D01*
X32143Y16147D02*
X32457D01*
X29350Y34740D02*
Y35740D01*
X37350D01*
Y34740D02*
Y35740D01*
X29350Y34740D02*
X37350D01*
X27700Y31500D02*
X28700D01*
Y23500D02*
Y31500D01*
X27700Y23500D02*
X28700D01*
X27700D02*
Y31500D01*
X16920Y15740D02*
X17370D01*
X17930D02*
X18380D01*
Y17960D01*
X16920Y15740D02*
Y17960D01*
X17400Y16350D02*
Y17350D01*
X17900D01*
Y16350D02*
Y17350D01*
X17400Y16350D02*
X17900D01*
X16920Y17960D02*
X17370D01*
X17930D02*
X18380D01*
X18496Y15740D02*
X18946D01*
X19506D02*
X19956D01*
Y17960D01*
X18496Y15740D02*
Y17960D01*
X18976Y16350D02*
Y17350D01*
X19476D01*
Y16350D02*
Y17350D01*
X18976Y16350D02*
X19476D01*
X18496Y17960D02*
X18946D01*
X19506D02*
X19956D01*
X20470Y15740D02*
X20920D01*
X21480D02*
X21930D01*
Y17960D01*
X20470Y15740D02*
Y17960D01*
X20950Y16350D02*
Y17350D01*
X21450D01*
Y16350D02*
Y17350D01*
X20950Y16350D02*
X21450D01*
X20470Y17960D02*
X20920D01*
X21480D02*
X21930D01*
X22070Y15740D02*
X22520D01*
X23080D02*
X23530D01*
Y17960D01*
X22070Y15740D02*
Y17960D01*
X22550Y16350D02*
Y17350D01*
X23050D01*
Y16350D02*
Y17350D01*
X22550Y16350D02*
X23050D01*
X22070Y17960D02*
X22520D01*
X23080D02*
X23530D01*
X36400Y17700D02*
Y18700D01*
X28400Y17700D02*
X36400D01*
X28400D02*
Y18700D01*
X36400D01*
X43070Y25630D02*
Y26280D01*
X42857Y25950D02*
Y26280D01*
X41420D02*
X42860D01*
X41420Y25620D02*
Y26280D01*
Y25620D02*
X42860D01*
X42857D02*
Y25950D01*
X43070Y26630D02*
Y27280D01*
X42857Y26950D02*
Y27280D01*
X41420D02*
X42860D01*
X41420Y26620D02*
Y27280D01*
Y26620D02*
X42860D01*
X42857D02*
Y26950D01*
X43070Y27630D02*
Y28280D01*
X42857Y27950D02*
Y28280D01*
X41420D02*
X42860D01*
X41420Y27620D02*
Y28280D01*
Y27620D02*
X42860D01*
X42857D02*
Y27950D01*
X43070Y28630D02*
Y29280D01*
X42857Y28950D02*
Y29280D01*
X41420D02*
X42860D01*
X41420Y28620D02*
Y29280D01*
Y28620D02*
X42860D01*
X42857D02*
Y28950D01*
X43070Y29630D02*
Y30280D01*
X42857Y29950D02*
Y30280D01*
X41420D02*
X42860D01*
X41420Y29620D02*
Y30280D01*
Y29620D02*
X42860D01*
X42857D02*
Y29950D01*
X33350Y33657D02*
X33744D01*
Y32043D02*
Y33657D01*
X32956Y32043D02*
X33744D01*
X32956D02*
Y33657D01*
X33350D01*
X33110Y32695D02*
Y33010D01*
X33590Y32693D02*
Y33007D01*
X43070Y30630D02*
Y31280D01*
X42857Y30950D02*
Y31280D01*
X41420D02*
X42860D01*
X41420Y30620D02*
Y31280D01*
Y30620D02*
X42860D01*
X42857D02*
Y30950D01*
X31726Y19843D02*
X32120D01*
X31726D02*
Y21457D01*
X32514D01*
Y19843D02*
Y21457D01*
X32120Y19843D02*
X32514D01*
X32360Y20490D02*
Y20805D01*
X31880Y20493D02*
Y20807D01*
X35386Y19843D02*
X35780D01*
X35386D02*
Y21457D01*
X36174D01*
Y19843D02*
Y21457D01*
X35780Y19843D02*
X36174D01*
X36020Y20490D02*
Y20805D01*
X35540Y20493D02*
Y20807D01*
X43070Y31630D02*
Y32280D01*
X42857Y31950D02*
Y32280D01*
X41420D02*
X42860D01*
X41420Y31620D02*
Y32280D01*
Y31620D02*
X42860D01*
X42857D02*
Y31950D01*
X43070Y32625D02*
Y33275D01*
X42857Y32945D02*
Y33275D01*
X41420D02*
X42860D01*
X41420Y32615D02*
Y33275D01*
Y32615D02*
X42860D01*
X42857D02*
Y32945D01*
X38300Y26257D02*
X38694D01*
Y24643D02*
Y26257D01*
X37906Y24643D02*
X38694D01*
X37906D02*
Y26257D01*
X38300D01*
X38060Y25295D02*
Y25610D01*
X38540Y25293D02*
Y25607D01*
X42372Y19972D02*
Y23272D01*
Y19972D02*
X43918D01*
X44882D02*
X46428D01*
Y23292D01*
X43128Y24028D02*
X43918D01*
X42372Y23272D02*
X43128Y24028D01*
X45692D02*
X46428Y23292D01*
X44882Y24028D02*
X45692D01*
X14350Y30532D02*
X14744D01*
Y28918D02*
Y30532D01*
X13956Y28918D02*
X14744D01*
X13956D02*
Y30532D01*
X14350D01*
X14110Y29570D02*
Y29885D01*
X14590Y29567D02*
Y29882D01*
X41300Y35740D02*
X43300D01*
X41300Y34740D02*
Y35740D01*
Y34740D02*
X43300D01*
Y35740D01*
X11156Y32243D02*
X11550D01*
X11156D02*
Y33857D01*
X11944D01*
Y32243D02*
Y33857D01*
X11550Y32243D02*
X11944D01*
X11790Y32890D02*
Y33205D01*
X11310Y32893D02*
Y33207D01*
X21200Y32307D02*
X21594D01*
Y30693D02*
Y32307D01*
X20806Y30693D02*
X21594D01*
X20806D02*
Y32307D01*
X21200D01*
X20960Y31345D02*
Y31660D01*
X21440Y31343D02*
Y31657D01*
X22200Y32307D02*
X22594D01*
Y30693D02*
Y32307D01*
X21806Y30693D02*
X22594D01*
X21806D02*
Y32307D01*
X22200D01*
X21960Y31345D02*
Y31660D01*
X22440Y31343D02*
Y31657D01*
X20806Y20143D02*
X21200D01*
X20806D02*
Y21757D01*
X21594D01*
Y20143D02*
Y21757D01*
X21200Y20143D02*
X21594D01*
X21440Y20790D02*
Y21105D01*
X20960Y20793D02*
Y21107D01*
X18806Y20143D02*
X19200D01*
X18806D02*
Y21757D01*
X19594D01*
Y20143D02*
Y21757D01*
X19200Y20143D02*
X19594D01*
X19440Y20790D02*
Y21105D01*
X18960Y20793D02*
Y21107D01*
X17806Y20143D02*
X18200D01*
X17806D02*
Y21757D01*
X18594D01*
Y20143D02*
Y21757D01*
X18200Y20143D02*
X18594D01*
X18440Y20790D02*
Y21105D01*
X17960Y20793D02*
Y21107D01*
X19200Y32307D02*
X19594D01*
Y30693D02*
Y32307D01*
X18806Y30693D02*
X19594D01*
X18806D02*
Y32307D01*
X19200D01*
X18960Y31345D02*
Y31660D01*
X19440Y31343D02*
Y31657D01*
X18150Y32307D02*
X18544D01*
Y30693D02*
Y32307D01*
X17756Y30693D02*
X18544D01*
X17756D02*
Y32307D01*
X18150D01*
X17910Y31345D02*
Y31660D01*
X18390Y31343D02*
Y31657D01*
X22878Y44478D02*
Y47778D01*
X21332D02*
X22878D01*
X18822D02*
X20368D01*
X18822Y44458D02*
Y47778D01*
X21332Y43722D02*
X22122D01*
X22878Y44478D01*
X18822Y44458D02*
X19558Y43722D01*
X20368D01*
D23*
X12955Y30965D02*
G03*
X12955Y30965I-255J0D01*
G01*
X38854Y23100D02*
Y23700D01*
X39154D01*
X39254Y23600D01*
Y23400D01*
X39154Y23300D01*
X38854D01*
X39054D02*
X39254Y23100D01*
X39754D02*
Y23700D01*
X39454Y23400D01*
X39854D01*
X30840Y31810D02*
X31040D01*
X30940D01*
Y31210D01*
X30840D01*
X31040D01*
X31740Y31710D02*
X31640Y31810D01*
X31440D01*
X31340Y31710D01*
Y31310D01*
X31440Y31210D01*
X31640D01*
X31740Y31310D01*
X31940Y31210D02*
X32140D01*
X32040D01*
Y31810D01*
X31940Y31710D01*
X30840Y25240D02*
X31240Y24640D01*
Y25240D02*
X30840Y24640D01*
X31440Y25240D02*
X31840D01*
X31640D01*
Y24640D01*
X32040D02*
X32240D01*
X32140D01*
Y25240D01*
X32040Y25140D01*
X11205Y32270D02*
Y31870D01*
X11405Y31670D01*
X11605Y31870D01*
Y32270D01*
X11805Y31670D02*
Y32270D01*
X12105D01*
X12205Y32170D01*
Y31970D01*
X12105Y31870D01*
X11805D01*
X12005D02*
X12205Y31670D01*
X12405D02*
X12605D01*
X12505D01*
Y32270D01*
X12405Y32170D01*
X45525Y16125D02*
Y15725D01*
X45725Y15525D01*
X45925Y15725D01*
Y16125D01*
X46425Y15525D02*
Y16125D01*
X46125Y15825D01*
X46525D01*
X10425Y16125D02*
Y15725D01*
X10625Y15525D01*
X10825Y15725D01*
Y16125D01*
X11025Y16025D02*
X11125Y16125D01*
X11325D01*
X11425Y16025D01*
Y15925D01*
X11325Y15825D01*
X11225D01*
X11325D01*
X11425Y15725D01*
Y15625D01*
X11325Y15525D01*
X11125D01*
X11025Y15625D01*
X45525Y50675D02*
Y50275D01*
X45725Y50075D01*
X45925Y50275D01*
Y50675D01*
X46525Y50075D02*
X46125D01*
X46525Y50475D01*
Y50575D01*
X46425Y50675D01*
X46225D01*
X46125Y50575D01*
X10425Y50675D02*
Y50275D01*
X10625Y50075D01*
X10825Y50275D01*
Y50675D01*
X11025Y50075D02*
X11225D01*
X11125D01*
Y50675D01*
X11025Y50575D01*
X44170Y34780D02*
Y35380D01*
X44470D01*
X44570Y35280D01*
Y35080D01*
X44470Y34980D01*
X44170D01*
X44370D02*
X44570Y34780D01*
X44770D02*
Y35380D01*
X45170Y34780D01*
Y35380D01*
X45769Y34780D02*
X45370D01*
X45769Y35180D01*
Y35280D01*
X45670Y35380D01*
X45470D01*
X45370Y35280D01*
X25910Y27890D02*
Y28490D01*
X26210D01*
X26310Y28390D01*
Y28190D01*
X26210Y28090D01*
X25910D01*
X26110D02*
X26310Y27890D01*
X26510D02*
Y28490D01*
X26910Y27890D01*
Y28490D01*
X27110Y27890D02*
X27310D01*
X27210D01*
Y28490D01*
X27110Y28390D01*
X21820Y22150D02*
Y22750D01*
X22120D01*
X22220Y22650D01*
Y22450D01*
X22120Y22350D01*
X21820D01*
X22020D02*
X22220Y22150D01*
X22420D02*
X22620D01*
X22520D01*
Y22750D01*
X22420Y22650D01*
X22920D02*
X23020Y22750D01*
X23220D01*
X23320Y22650D01*
Y22550D01*
X23220Y22450D01*
X23120D01*
X23220D01*
X23320Y22350D01*
Y22250D01*
X23220Y22150D01*
X23020D01*
X22920Y22250D01*
X17770Y32700D02*
Y33300D01*
X18070D01*
X18170Y33200D01*
Y33000D01*
X18070Y32900D01*
X17770D01*
X17970D02*
X18170Y32700D01*
X18370D02*
X18570D01*
X18470D01*
Y33300D01*
X18370Y33200D01*
X19270Y32700D02*
X18870D01*
X19270Y33100D01*
Y33200D01*
X19170Y33300D01*
X18970D01*
X18870Y33200D01*
X18820Y32700D02*
Y33300D01*
X19120D01*
X19220Y33200D01*
Y33000D01*
X19120Y32900D01*
X18820D01*
X19020D02*
X19220Y32700D01*
X19420D02*
X19620D01*
X19520D01*
Y33300D01*
X19420Y33200D01*
X19920Y32700D02*
X20120D01*
X20020D01*
Y33300D01*
X19920Y33200D01*
X17820Y22150D02*
Y22750D01*
X18120D01*
X18220Y22650D01*
Y22450D01*
X18120Y22350D01*
X17820D01*
X18020D02*
X18220Y22150D01*
X18420D02*
X18620D01*
X18520D01*
Y22750D01*
X18420Y22650D01*
X18920D02*
X19020Y22750D01*
X19220D01*
X19320Y22650D01*
Y22250D01*
X19220Y22150D01*
X19020D01*
X18920Y22250D01*
Y22650D01*
X18820Y22150D02*
Y22750D01*
X19120D01*
X19220Y22650D01*
Y22450D01*
X19120Y22350D01*
X18820D01*
X19020D02*
X19220Y22150D01*
X19420Y22250D02*
X19520Y22150D01*
X19720D01*
X19820Y22250D01*
Y22650D01*
X19720Y22750D01*
X19520D01*
X19420Y22650D01*
Y22550D01*
X19520Y22450D01*
X19820D01*
X20820Y22150D02*
Y22750D01*
X21120D01*
X21220Y22650D01*
Y22450D01*
X21120Y22350D01*
X20820D01*
X21020D02*
X21220Y22150D01*
X21420Y22650D02*
X21520Y22750D01*
X21720D01*
X21820Y22650D01*
Y22550D01*
X21720Y22450D01*
X21820Y22350D01*
Y22250D01*
X21720Y22150D01*
X21520D01*
X21420Y22250D01*
Y22350D01*
X21520Y22450D01*
X21420Y22550D01*
Y22650D01*
X21520Y22450D02*
X21720D01*
X21820Y32700D02*
Y33300D01*
X22120D01*
X22220Y33200D01*
Y33000D01*
X22120Y32900D01*
X21820D01*
X22020D02*
X22220Y32700D01*
X22420Y33300D02*
X22820D01*
Y33200D01*
X22420Y32800D01*
Y32700D01*
X20820D02*
Y33300D01*
X21120D01*
X21220Y33200D01*
Y33000D01*
X21120Y32900D01*
X20820D01*
X21020D02*
X21220Y32700D01*
X21820Y33300D02*
X21620Y33200D01*
X21420Y33000D01*
Y32800D01*
X21520Y32700D01*
X21720D01*
X21820Y32800D01*
Y32900D01*
X21720Y33000D01*
X21420D01*
X11170Y34250D02*
Y34850D01*
X11470D01*
X11570Y34750D01*
Y34550D01*
X11470Y34450D01*
X11170D01*
X11370D02*
X11570Y34250D01*
X12170Y34850D02*
X11770D01*
Y34550D01*
X11970Y34650D01*
X12070D01*
X12170Y34550D01*
Y34350D01*
X12070Y34250D01*
X11870D01*
X11770Y34350D01*
X35220Y46750D02*
Y47350D01*
X35520D01*
X35620Y47250D01*
Y47050D01*
X35520Y46950D01*
X35220D01*
X35420D02*
X35620Y46750D01*
X35820Y47250D02*
X35920Y47350D01*
X36120D01*
X36220Y47250D01*
Y47150D01*
X36120Y47050D01*
X36020D01*
X36120D01*
X36220Y46950D01*
Y46850D01*
X36120Y46750D01*
X35920D01*
X35820Y46850D01*
X31505Y16692D02*
Y17292D01*
X31805D01*
X31905Y17192D01*
Y16992D01*
X31805Y16892D01*
X31505D01*
X31705D02*
X31905Y16692D01*
X32505D02*
X32105D01*
X32505Y17092D01*
Y17192D01*
X32405Y17292D01*
X32205D01*
X32105Y17192D01*
X33405Y16692D02*
Y17292D01*
X33705D01*
X33805Y17192D01*
Y16992D01*
X33705Y16892D01*
X33405D01*
X33605D02*
X33805Y16692D01*
X34005D02*
X34205D01*
X34105D01*
Y17292D01*
X34005Y17192D01*
X11510Y26615D02*
Y27215D01*
X11810D01*
X11910Y27115D01*
Y26915D01*
X11810Y26815D01*
X11510D01*
X12110Y27115D02*
X12210Y27215D01*
X12410D01*
X12510Y27115D01*
Y27015D01*
X12410Y26915D01*
X12510Y26815D01*
Y26715D01*
X12410Y26615D01*
X12210D01*
X12110Y26715D01*
Y26815D01*
X12210Y26915D01*
X12110Y27015D01*
Y27115D01*
X12210Y26915D02*
X12410D01*
X41360Y36080D02*
Y36680D01*
X41660D01*
X41760Y36580D01*
Y36380D01*
X41660Y36280D01*
X41360D01*
X41960Y36680D02*
X42360D01*
Y36580D01*
X41960Y36180D01*
Y36080D01*
X39515Y33785D02*
Y34385D01*
X39815D01*
X39915Y34285D01*
Y34085D01*
X39815Y33985D01*
X39515D01*
X40515Y34385D02*
X40315Y34285D01*
X40115Y34085D01*
Y33885D01*
X40215Y33785D01*
X40415D01*
X40515Y33885D01*
Y33985D01*
X40415Y34085D01*
X40115D01*
X28460Y19040D02*
Y19640D01*
X28760D01*
X28860Y19540D01*
Y19340D01*
X28760Y19240D01*
X28460D01*
X29460Y19640D02*
X29060D01*
Y19340D01*
X29260Y19440D01*
X29360D01*
X29460Y19340D01*
Y19140D01*
X29360Y19040D01*
X29160D01*
X29060Y19140D01*
X27765Y31835D02*
Y32435D01*
X28065D01*
X28165Y32335D01*
Y32135D01*
X28065Y32035D01*
X27765D01*
X28665Y31835D02*
Y32435D01*
X28365Y32135D01*
X28765D01*
X29410Y36080D02*
Y36680D01*
X29710D01*
X29810Y36580D01*
Y36380D01*
X29710Y36280D01*
X29410D01*
X30010Y36580D02*
X30110Y36680D01*
X30310D01*
X30410Y36580D01*
Y36480D01*
X30310Y36380D01*
X30210D01*
X30310D01*
X30410Y36280D01*
Y36180D01*
X30310Y36080D01*
X30110D01*
X30010Y36180D01*
X37900Y19400D02*
Y20000D01*
X38200D01*
X38300Y19900D01*
Y19700D01*
X38200Y19600D01*
X37900D01*
X38900Y19400D02*
X38500D01*
X38900Y19800D01*
Y19900D01*
X38800Y20000D01*
X38600D01*
X38500Y19900D01*
X25114Y16690D02*
Y17290D01*
X25414D01*
X25514Y17190D01*
Y16990D01*
X25414Y16890D01*
X25114D01*
X25714Y16690D02*
X25914D01*
X25814D01*
Y17290D01*
X25714Y17190D01*
X17765Y30785D02*
Y30185D01*
X18165D01*
X18765Y30785D02*
X18365D01*
Y30185D01*
X18765D01*
X18365Y30485D02*
X18565D01*
X18965Y30785D02*
Y30185D01*
X19265D01*
X19364Y30285D01*
Y30685D01*
X19265Y30785D01*
X18965D01*
X19564Y30185D02*
X19764D01*
X19664D01*
Y30785D01*
X19564Y30685D01*
X17000Y52050D02*
Y51450D01*
X17400D01*
X18000Y51950D02*
X17900Y52050D01*
X17700D01*
X17600Y51950D01*
Y51550D01*
X17700Y51450D01*
X17900D01*
X18000Y51550D01*
X18200Y52050D02*
Y51450D01*
X18500D01*
X18599Y51550D01*
Y51950D01*
X18500Y52050D01*
X18200D01*
X18799Y51450D02*
X18999D01*
X18899D01*
Y52050D01*
X18799Y51950D01*
X10820Y47640D02*
X10620D01*
X10720D01*
Y47140D01*
X10620Y47040D01*
X10520D01*
X10420Y47140D01*
X11020Y47040D02*
X11220D01*
X11120D01*
Y47640D01*
X11020Y47540D01*
X23800Y48965D02*
X24000D01*
X23900D01*
Y48365D01*
X23800D01*
X24000D01*
X24700Y48865D02*
X24600Y48965D01*
X24400D01*
X24300Y48865D01*
Y48465D01*
X24400Y48365D01*
X24600D01*
X24700Y48465D01*
X25300Y48365D02*
X24900D01*
X25300Y48765D01*
Y48865D01*
X25200Y48965D01*
X25000D01*
X24900Y48865D01*
X12835Y34920D02*
Y34320D01*
X13134D01*
X13234Y34420D01*
Y34820D01*
X13134Y34920D01*
X12835D01*
X13434Y34420D02*
X13534Y34320D01*
X13734D01*
X13834Y34420D01*
Y34820D01*
X13734Y34920D01*
X13534D01*
X13434Y34820D01*
Y34720D01*
X13534Y34620D01*
X13834D01*
X41340Y34325D02*
Y33725D01*
X41640D01*
X41740Y33825D01*
Y34225D01*
X41640Y34325D01*
X41340D01*
X41940Y34225D02*
X42040Y34325D01*
X42240D01*
X42340Y34225D01*
Y34125D01*
X42240Y34025D01*
X42340Y33925D01*
Y33825D01*
X42240Y33725D01*
X42040D01*
X41940Y33825D01*
Y33925D01*
X42040Y34025D01*
X41940Y34125D01*
Y34225D01*
X42040Y34025D02*
X42240D01*
X41340Y33330D02*
Y32730D01*
X41640D01*
X41740Y32830D01*
Y33230D01*
X41640Y33330D01*
X41340D01*
X41940D02*
X42340D01*
Y33230D01*
X41940Y32830D01*
Y32730D01*
X41340Y32330D02*
Y31730D01*
X41640D01*
X41740Y31830D01*
Y32230D01*
X41640Y32330D01*
X41340D01*
X42340D02*
X42140Y32230D01*
X41940Y32030D01*
Y31830D01*
X42040Y31730D01*
X42240D01*
X42340Y31830D01*
Y31930D01*
X42240Y32030D01*
X41940D01*
X41340Y31330D02*
Y30730D01*
X41640D01*
X41740Y30830D01*
Y31230D01*
X41640Y31330D01*
X41340D01*
X42340D02*
X41940D01*
Y31030D01*
X42140Y31130D01*
X42240D01*
X42340Y31030D01*
Y30830D01*
X42240Y30730D01*
X42040D01*
X41940Y30830D01*
X41340Y30330D02*
Y29730D01*
X41640D01*
X41740Y29830D01*
Y30230D01*
X41640Y30330D01*
X41340D01*
X42240Y29730D02*
Y30330D01*
X41940Y30030D01*
X42340D01*
X41340Y29335D02*
Y28735D01*
X41640D01*
X41740Y28835D01*
Y29235D01*
X41640Y29335D01*
X41340D01*
X41940Y29235D02*
X42040Y29335D01*
X42240D01*
X42340Y29235D01*
Y29135D01*
X42240Y29035D01*
X42140D01*
X42240D01*
X42340Y28935D01*
Y28835D01*
X42240Y28735D01*
X42040D01*
X41940Y28835D01*
X41340Y28330D02*
Y27730D01*
X41640D01*
X41740Y27830D01*
Y28230D01*
X41640Y28330D01*
X41340D01*
X42340Y27730D02*
X41940D01*
X42340Y28130D01*
Y28230D01*
X42240Y28330D01*
X42040D01*
X41940Y28230D01*
X41341Y27330D02*
Y26730D01*
X41641D01*
X41740Y26830D01*
Y27230D01*
X41641Y27330D01*
X41341D01*
X41940Y26730D02*
X42140D01*
X42040D01*
Y27330D01*
X41940Y27230D01*
X27370Y49400D02*
X27270Y49500D01*
X27070D01*
X26970Y49400D01*
Y49000D01*
X27070Y48900D01*
X27270D01*
X27370Y49000D01*
X27570Y48900D02*
X27770D01*
X27670D01*
Y49500D01*
X27570Y49400D01*
X28070D02*
X28170Y49500D01*
X28370D01*
X28470Y49400D01*
Y49000D01*
X28370Y48900D01*
X28170D01*
X28070Y49000D01*
Y49400D01*
X18920Y49550D02*
X18820Y49650D01*
X18620D01*
X18520Y49550D01*
Y49150D01*
X18620Y49050D01*
X18820D01*
X18920Y49150D01*
X19120D02*
X19220Y49050D01*
X19420D01*
X19520Y49150D01*
Y49550D01*
X19420Y49650D01*
X19220D01*
X19120Y49550D01*
Y49450D01*
X19220Y49350D01*
X19520D01*
X32570Y47250D02*
X32470Y47350D01*
X32270D01*
X32170Y47250D01*
Y46850D01*
X32270Y46750D01*
X32470D01*
X32570Y46850D01*
X32770Y47250D02*
X32870Y47350D01*
X33070D01*
X33170Y47250D01*
Y47150D01*
X33070Y47050D01*
X33170Y46950D01*
Y46850D01*
X33070Y46750D01*
X32870D01*
X32770Y46850D01*
Y46950D01*
X32870Y47050D01*
X32770Y47150D01*
Y47250D01*
X32870Y47050D02*
X33070D01*
X14370Y31425D02*
X14270Y31525D01*
X14070D01*
X13970Y31425D01*
Y31025D01*
X14070Y30925D01*
X14270D01*
X14370Y31025D01*
X14570Y31525D02*
X14970D01*
Y31425D01*
X14570Y31025D01*
Y30925D01*
X42470Y25800D02*
X42370Y25900D01*
X42170D01*
X42070Y25800D01*
Y25400D01*
X42170Y25300D01*
X42370D01*
X42470Y25400D01*
X43070Y25900D02*
X42870Y25800D01*
X42670Y25600D01*
Y25400D01*
X42770Y25300D01*
X42970D01*
X43070Y25400D01*
Y25500D01*
X42970Y25600D01*
X42670D01*
X38250Y27210D02*
X38150Y27310D01*
X37950D01*
X37850Y27210D01*
Y26810D01*
X37950Y26710D01*
X38150D01*
X38250Y26810D01*
X38750Y26710D02*
Y27310D01*
X38450Y27010D01*
X38850D01*
X32140Y22350D02*
X32040Y22450D01*
X31840D01*
X31740Y22350D01*
Y21950D01*
X31840Y21850D01*
X32040D01*
X32140Y21950D01*
X32340Y22350D02*
X32440Y22450D01*
X32640D01*
X32740Y22350D01*
Y22250D01*
X32640Y22150D01*
X32540D01*
X32640D01*
X32740Y22050D01*
Y21950D01*
X32640Y21850D01*
X32440D01*
X32340Y21950D01*
X35796Y22350D02*
X35696Y22450D01*
X35496D01*
X35396Y22350D01*
Y21950D01*
X35496Y21850D01*
X35696D01*
X35796Y21950D01*
X36396Y21850D02*
X35996D01*
X36396Y22250D01*
Y22350D01*
X36296Y22450D01*
X36096D01*
X35996Y22350D01*
X33370Y34550D02*
X33270Y34650D01*
X33070D01*
X32970Y34550D01*
Y34150D01*
X33070Y34050D01*
X33270D01*
X33370Y34150D01*
X33570Y34050D02*
X33770D01*
X33670D01*
Y34650D01*
X33570Y34550D01*
X40070Y24580D02*
Y23980D01*
X40370D01*
X40470Y24080D01*
Y24180D01*
X40370Y24280D01*
X40070D01*
X40370D01*
X40470Y24380D01*
Y24480D01*
X40370Y24580D01*
X40070D01*
X41070D02*
X40670D01*
Y24280D01*
X40870Y24380D01*
X40970D01*
X41070Y24280D01*
Y24080D01*
X40970Y23980D01*
X40770D01*
X40670Y24080D01*
X16970Y19480D02*
Y18880D01*
X17270D01*
X17370Y18980D01*
Y19080D01*
X17270Y19180D01*
X16970D01*
X17270D01*
X17370Y19280D01*
Y19380D01*
X17270Y19480D01*
X16970D01*
X17870Y18880D02*
Y19480D01*
X17570Y19180D01*
X17970D01*
X18546Y19480D02*
Y18880D01*
X18846D01*
X18946Y18980D01*
Y19080D01*
X18846Y19180D01*
X18546D01*
X18846D01*
X18946Y19280D01*
Y19380D01*
X18846Y19480D01*
X18546D01*
X19146Y19380D02*
X19246Y19480D01*
X19446D01*
X19546Y19380D01*
Y19280D01*
X19446Y19180D01*
X19346D01*
X19446D01*
X19546Y19080D01*
Y18980D01*
X19446Y18880D01*
X19246D01*
X19146Y18980D01*
X20520Y19480D02*
Y18880D01*
X20820D01*
X20920Y18980D01*
Y19080D01*
X20820Y19180D01*
X20520D01*
X20820D01*
X20920Y19280D01*
Y19380D01*
X20820Y19480D01*
X20520D01*
X21520Y18880D02*
X21120D01*
X21520Y19280D01*
Y19380D01*
X21420Y19480D01*
X21220D01*
X21120Y19380D01*
X22120Y19480D02*
Y18880D01*
X22420D01*
X22520Y18980D01*
Y19080D01*
X22420Y19180D01*
X22120D01*
X22420D01*
X22520Y19280D01*
Y19380D01*
X22420Y19480D01*
X22120D01*
X22720Y18880D02*
X22920D01*
X22820D01*
Y19480D01*
X22720Y19380D01*
X16680Y46062D02*
X16880D01*
X16780D01*
Y46662D01*
X16680Y46562D01*
X17180Y46062D02*
Y46662D01*
X17580Y46062D01*
Y46662D01*
X18080Y46062D02*
Y46662D01*
X17780Y46362D01*
X18180D01*
X18379Y46562D02*
X18479Y46662D01*
X18679D01*
X18779Y46562D01*
Y46162D01*
X18679Y46062D01*
X18479D01*
X18379Y46162D01*
Y46562D01*
X18979D02*
X19079Y46662D01*
X19279D01*
X19379Y46562D01*
Y46162D01*
X19279Y46062D01*
X19079D01*
X18979Y46162D01*
Y46562D01*
X19579Y46662D02*
X19979D01*
Y46562D01*
X19579Y46162D01*
Y46062D01*
D40*
X31550Y25986D02*
G03*
X31550Y25986I-49J0D01*
G01*
X23898Y44082D02*
G03*
X23898Y44082I-49J0D01*
G01*
D41*
X32101Y26833D02*
G03*
X32101Y26833I-118J0D01*
G01*
D42*
X21650Y24100D02*
G03*
X21650Y24100I-60J0D01*
G01*
D43*
X40750Y21950D02*
D03*
X17650Y16850D02*
D03*
X19226Y16850D02*
D03*
X21200Y16850D02*
D03*
X22800D02*
D03*
M02*
