G04 Layer_Color=8421504*
%FSLAX24Y24*%
%MOIN*%
G70*
G01*
G75*
%ADD10R,0.0472X0.0315*%
%ADD11R,0.0217X0.0591*%
%ADD12R,0.0591X0.0217*%
%ADD13R,0.0650X0.0787*%
%ADD14R,0.0472X0.0787*%
%ADD15R,0.0728X0.1713*%
%ADD16R,0.0551X0.1181*%
%ADD17R,0.2362X0.2559*%
%ADD18R,0.2362X0.0787*%
%ADD19R,0.0315X0.0472*%
D10*
X39234Y22310D02*
D03*
Y21490D02*
D03*
X32550Y45140D02*
D03*
Y45960D02*
D03*
X13215Y33450D02*
D03*
Y32630D02*
D03*
X22200Y21360D02*
D03*
Y20540D02*
D03*
X35600Y45140D02*
D03*
Y45960D02*
D03*
X33350Y32440D02*
D03*
Y33260D02*
D03*
X32120Y21060D02*
D03*
Y20240D02*
D03*
X35780Y21060D02*
D03*
Y20240D02*
D03*
X38300Y25040D02*
D03*
Y25860D02*
D03*
X14350Y29315D02*
D03*
Y30135D02*
D03*
X11550Y33460D02*
D03*
Y32640D02*
D03*
X21200Y31090D02*
D03*
Y31910D02*
D03*
X22200Y31090D02*
D03*
Y31910D02*
D03*
X21200Y21360D02*
D03*
Y20540D02*
D03*
X19200Y21360D02*
D03*
Y20540D02*
D03*
X18200Y21360D02*
D03*
Y20540D02*
D03*
X19200Y31090D02*
D03*
Y31910D02*
D03*
X18150Y31090D02*
D03*
Y31910D02*
D03*
D11*
X31825Y25986D02*
D03*
X32140D02*
D03*
X32455D02*
D03*
X32770D02*
D03*
X33085D02*
D03*
X33400D02*
D03*
X33715D02*
D03*
X34030D02*
D03*
X34345D02*
D03*
X34660D02*
D03*
X34975D02*
D03*
Y30514D02*
D03*
X34660D02*
D03*
X34345D02*
D03*
X34030D02*
D03*
X33715D02*
D03*
X33400D02*
D03*
X33085D02*
D03*
X32770D02*
D03*
X32455D02*
D03*
X32140D02*
D03*
X31825D02*
D03*
D12*
X35664Y26675D02*
D03*
Y26990D02*
D03*
Y27305D02*
D03*
Y27620D02*
D03*
Y27935D02*
D03*
Y28250D02*
D03*
Y28565D02*
D03*
Y28880D02*
D03*
Y29195D02*
D03*
Y29510D02*
D03*
Y29825D02*
D03*
X31136D02*
D03*
Y29510D02*
D03*
Y29195D02*
D03*
Y28880D02*
D03*
Y28565D02*
D03*
Y28250D02*
D03*
Y27935D02*
D03*
Y27620D02*
D03*
Y27305D02*
D03*
Y26990D02*
D03*
Y26675D02*
D03*
D13*
X17350Y43454D02*
D03*
Y45146D02*
D03*
D14*
X40750Y20640D02*
D03*
Y23250D02*
D03*
X17650Y15540D02*
D03*
Y18150D02*
D03*
X19226Y15540D02*
D03*
Y18150D02*
D03*
X21200Y15540D02*
D03*
Y18150D02*
D03*
X22800Y15540D02*
D03*
Y18150D02*
D03*
D15*
X29300Y47332D02*
D03*
Y43868D02*
D03*
X44400Y20268D02*
D03*
Y23732D02*
D03*
X20850Y47482D02*
D03*
Y44018D02*
D03*
D16*
X26056Y44085D02*
D03*
X24244D02*
D03*
D17*
X25150Y46715D02*
D03*
D18*
X35780Y23200D02*
D03*
X32120D02*
D03*
D19*
X34610Y15907D02*
D03*
X33790D02*
D03*
X32710D02*
D03*
X31890D02*
D03*
X42550Y25950D02*
D03*
X41730D02*
D03*
X42550Y26950D02*
D03*
X41730D02*
D03*
X42550Y27950D02*
D03*
X41730D02*
D03*
X42550Y28950D02*
D03*
X41730D02*
D03*
X42550Y29950D02*
D03*
X41730D02*
D03*
X42550Y30950D02*
D03*
X41730D02*
D03*
X42550Y31950D02*
D03*
X41730D02*
D03*
X42550Y32945D02*
D03*
X41730D02*
D03*
M02*
